/* XPM */
static const char* ct_mid_on_xpm[] = {
"5 21 45 1",
" 	c None",
".	c #2C3A8E",
"+	c #C9DEEE",
"@	c #C4DBED",
"#	c #B0D0E8",
"$	c #98C2E0",
"%	c #98C3E0",
"&	c #80B5DA",
"*	c #6BAAD3",
"=	c #55A4D6",
"-	c #459FD8",
";	c #379CDB",
">	c #369CDB",
",	c #3698D5",
"'	c #3A99D5",
")	c #3999D5",
"!	c #399AD5",
"~	c #3A9AD5",
"{	c #409DD7",
"]	c #419DD7",
"^	c #3F9DD7",
"/	c #49A2D8",
"(	c #58A8DB",
"_	c #59A8DB",
":	c #5AA9DB",
"<	c #59A9DB",
"[	c #67B2E0",
"}	c #68B3E0",
"|	c #68B4E0",
"1	c #7ABDE3",
"2	c #7BBEE5",
"3	c #7BBFE5",
"4	c #7BBFE4",
"5	c #89CBE8",
"6	c #8ACCE7",
"7	c #8ACCE8",
"8	c #8BD1E9",
"9	c #8CD2E9",
"0	c #8CD3E9",
"a	c #8BD2E9",
"b	c #8CD1E9",
"c	c #8AD5EE",
"d	c #8CD6EE",
"e	c #8BD5EE",
"f	c #8BD6EE",
".....",
"+++++",
"@@@@@",
"#####",
"$%$$$",
"&&&&&",
"*****",
"=====",
"-----",
";>;;;",
",,,,,",
"')!~'",
"{]{^{",
"/////",
"(_:<<",
"[}|}}",
"12234",
"56766",
"890ab",
"cdeef",
"....."};
