/* XPM */
static const char* ct_mid_off_xpm[] = {
"5 21 23 1",
" 	c None",
".	c #5A5A5A",
"+	c #FAFAFA",
"@	c #F9F9F9",
"#	c #F4F4F4",
"$	c #EDEDED",
"%	c #E3E3E3",
"&	c #D7D7D7",
"*	c #CFCFCF",
"=	c #C8C8C8",
"-	c #C2C2C2",
";	c #BFBFBF",
">	c #C1C1C1",
",	c #C5C5C5",
"'	c #C6C6C6",
")	c #CACACA",
"!	c #D2D2D2",
"~	c #D3D3D3",
"{	c #DBDBDB",
"]	c #DCDCDC",
"^	c #E4E4E4",
"/	c #EAEAEA",
"(	c #EBEBEB",
".....",
"+++++",
"@@@@@",
"#####",
"$$$$$",
"%%%%%",
"&&&&&",
"*****",
"=====",
"-----",
";;;;;",
">>>>>",
",',,,",
")))))",
"!!~!!",
"{]]]]",
"%^^^^",
"/////",
"(((((",
"$$$$$",
"....."};
