/* XPM */
static const char* L_but_on_xpm[] = {
"8 21 111 2",
"  	c None",
". 	c #293684",
"+ 	c #0F2697",
"@ 	c #2371BC",
"# 	c #90ACC6",
"$ 	c #0F2798",
"% 	c #90B2D6",
"& 	c #B2CEE6",
"* 	c #BCD5EA",
"= 	c #112B9D",
"- 	c #7F9DCE",
"; 	c #A4C7E1",
"> 	c #AACBE3",
", 	c #A9CAE3",
"' 	c #122C9E",
") 	c #829ED2",
"! 	c #89B4D9",
"~ 	c #93BEDC",
"{ 	c #98C2E0",
"] 	c #98C3E0",
"^ 	c #293675",
"/ 	c #6683C7",
"( 	c #72A5D5",
"_ 	c #73ADD6",
": 	c #78B1D7",
"< 	c #80B5DA",
"[ 	c #29528F",
"} 	c #5B97D1",
"| 	c #5BA1D4",
"1 	c #5AA2D4",
"2 	c #60A7D5",
"3 	c #6BAAD3",
"4 	c #27508D",
"5 	c #3570A8",
"6 	c #4E9AD3",
"7 	c #499BD4",
"8 	c #499CD4",
"9 	c #4E9FD4",
"0 	c #55A4D6",
"a 	c #3E82C3",
"b 	c #4697D3",
"c 	c #459AD4",
"d 	c #459BD5",
"e 	c #419BD6",
"f 	c #459FD8",
"g 	c #408DD0",
"h 	c #4596D4",
"i 	c #4699D5",
"j 	c #4B9BD6",
"k 	c #469BD7",
"l 	c #379CDB",
"m 	c #369CDB",
"n 	c #3C8CD3",
"o 	c #4195D4",
"p 	c #4298D5",
"q 	c #4198D5",
"r 	c #3B98D5",
"s 	c #3698D5",
"t 	c #0C23A8",
"u 	c #368DE2",
"v 	c #4294D5",
"w 	c #4397D6",
"x 	c #4298D6",
"y 	c #3B98D6",
"z 	c #3A99D5",
"A 	c #3999D5",
"B 	c #2982D9",
"C 	c #4495D7",
"D 	c #4297D5",
"E 	c #3D98D5",
"F 	c #3898D5",
"G 	c #409DD7",
"H 	c #419DD7",
"I 	c #284F8B",
"J 	c #3371B0",
"K 	c #4898DA",
"L 	c #4198D6",
"M 	c #459DD6",
"N 	c #4BA2D7",
"O 	c #4BA3D8",
"P 	c #49A2D8",
"Q 	c #4390D6",
"R 	c #4B9DDB",
"S 	c #4EA2D7",
"T 	c #55A7D8",
"U 	c #5DABDB",
"V 	c #5AA9DB",
"W 	c #265A99",
"X 	c #66ABE7",
"Y 	c #67B2DF",
"Z 	c #67B2DD",
"` 	c #6AB4E0",
" .	c #68B3E0",
"..	c #293E8D",
"+.	c #5C92D2",
"@.	c #78BAE5",
"#.	c #73BAE2",
"$.	c #70B8E2",
"%.	c #74BBE4",
"&.	c #263B8A",
"*.	c #5C8CB5",
"=.	c #7EC3E7",
"-.	c #81C6E9",
";.	c #84C8E9",
">.	c #112A9C",
",.	c #568DAE",
"'.	c #84C9EA",
").	c #88CDEC",
"!.	c #183BD7",
"~.	c #77AAC4",
"{.	c #2C3A8E",
"              . ",
"          + @ # ",
"        $ % & * ",
"      = - ; > , ",
"    ' ) ! ~ { ] ",
"  ^ / ( _ : < < ",
"  [ } | 1 2 3 3 ",
"4 5 6 7 8 9 0 0 ",
"' a b c d e f f ",
"' g h i j k l m ",
"' n o p q r s s ",
"t u v w x y z A ",
"= B C D E F G H ",
"I J K L M N O P ",
"  ' Q R S T U V ",
"    W X Y Z `  .",
"    ..+.@.#.$.%.",
"      &.*.=.-.;.",
"        >.,.'.).",
"          ' !.~.",
"              {."};
