/* XPM */
static const char* L_but_off_xpm[] = {
"8 21 69 1",
" 	c None",
".	c #565656",
"+	c #525252",
"@	c #595959",
"#	c #C4C4C4",
"$	c #6C6C6C",
"%	c #CCCCCC",
"&	c #E2E2E2",
"*	c #F9F9F9",
"=	c #535353",
"-	c #CBCBCB",
";	c #F0F0F0",
">	c #F3F3F3",
",	c #F4F4F4",
"'	c #505050",
")	c #D1D1D1",
"!	c #E6E6E6",
"~	c #EAEAEA",
"{	c #EDEDED",
"]	c #A5A5A5",
"^	c #DADADA",
"/	c #DDDDDD",
"(	c #E3E3E3",
"_	c #4F4F4F",
":	c #C2C2C2",
"<	c #CDCDCD",
"[	c #D6D6D6",
"}	c #D7D7D7",
"|	c #656565",
"1	c #848484",
"2	c #D0D0D0",
"3	c #C8C8C8",
"4	c #C6C6C6",
"5	c #C9C9C9",
"6	c #CFCFCF",
"7	c #575757",
"8	c #ABABAB",
"9	c #C5C5C5",
"0	c #BFBFBF",
"a	c #C7C7C7",
"b	c #5A5A5A",
"c	c #C0C0C0",
"d	c #BDBDBD",
"e	c #BABABA",
"f	c #BCBCBC",
"g	c #BEBEBE",
"h	c #BBBBBB",
"i	c #B7B7B7",
"j	c #A6A6A6",
"k	c #C1C1C1",
"l	c #4A4A4A",
"m	c #5E5E5E",
"n	c #797979",
"o	c #CACACA",
"p	c #B4B4B4",
"q	c #D9D9D9",
"r	c #D5D5D5",
"s	c #D2D2D2",
"t	c #E0E0E0",
"u	c #DBDBDB",
"v	c #A1A1A1",
"w	c #E4E4E4",
"x	c #9F9F9F",
"y	c #E9E9E9",
"z	c #4D4D4D",
"A	c #D8D8D8",
"B	c #EBEBEB",
"C	c #555555",
"D	c #676767",
"       .",
"     +@#",
"    $%&*",
"   =-;>,",
"  ')!~{{",
" .]^^/((",
" _:<<)[}",
"|1234526",
"7890:#a3",
"b00cc0d:",
"befghei0",
"7jg0fhek",
"l8k:d:#9",
"mn3<4-5o",
" bp<}qrs",
"  .e//tu",
"  =v(&w(",
"   =x4y~",
"    zaAB",
"     CD{",
"       b"};
