/* XPM */
static const char* R_but_on_xpm[] = {
"8 21 111 2",
"  	c None",
". 	c #293684",
"+ 	c #90ACC6",
"@ 	c #2371BC",
"# 	c #0F2697",
"$ 	c #BCD5EA",
"% 	c #B2CEE6",
"& 	c #90B2D6",
"* 	c #0F2798",
"= 	c #A9CAE3",
"- 	c #AACBE3",
"; 	c #A4C7E1",
"> 	c #7F9DCE",
", 	c #112B9D",
"' 	c #98C3E0",
") 	c #98C2E0",
"! 	c #93BEDC",
"~ 	c #89B4D9",
"{ 	c #829ED2",
"] 	c #122C9E",
"^ 	c #80B5DA",
"/ 	c #78B1D7",
"( 	c #73ADD6",
"_ 	c #72A5D5",
": 	c #6683C7",
"< 	c #293675",
"[ 	c #6BAAD3",
"} 	c #60A7D5",
"| 	c #5AA2D4",
"1 	c #5BA1D4",
"2 	c #5B97D1",
"3 	c #29528F",
"4 	c #55A4D6",
"5 	c #4E9FD4",
"6 	c #499CD4",
"7 	c #499BD4",
"8 	c #4E9AD3",
"9 	c #3570A8",
"0 	c #27508D",
"a 	c #459FD8",
"b 	c #419BD6",
"c 	c #459BD5",
"d 	c #459AD4",
"e 	c #4697D3",
"f 	c #3E82C3",
"g 	c #369CDB",
"h 	c #379CDB",
"i 	c #469BD7",
"j 	c #4B9BD6",
"k 	c #4699D5",
"l 	c #4596D4",
"m 	c #408DD0",
"n 	c #3698D5",
"o 	c #3B98D5",
"p 	c #4198D5",
"q 	c #4298D5",
"r 	c #4195D4",
"s 	c #3C8CD3",
"t 	c #3999D5",
"u 	c #3A99D5",
"v 	c #3B98D6",
"w 	c #4298D6",
"x 	c #4397D6",
"y 	c #4294D5",
"z 	c #368DE2",
"A 	c #0C23A8",
"B 	c #419DD7",
"C 	c #409DD7",
"D 	c #3898D5",
"E 	c #3D98D5",
"F 	c #4297D5",
"G 	c #4495D7",
"H 	c #2982D9",
"I 	c #49A2D8",
"J 	c #4BA3D8",
"K 	c #4BA2D7",
"L 	c #459DD6",
"M 	c #4198D6",
"N 	c #4898DA",
"O 	c #3371B0",
"P 	c #284F8B",
"Q 	c #5AA9DB",
"R 	c #5DABDB",
"S 	c #55A7D8",
"T 	c #4EA2D7",
"U 	c #4B9DDB",
"V 	c #4390D6",
"W 	c #68B3E0",
"X 	c #6AB4E0",
"Y 	c #67B2DD",
"Z 	c #67B2DF",
"` 	c #66ABE7",
" .	c #265A99",
"..	c #74BBE4",
"+.	c #70B8E2",
"@.	c #73BAE2",
"#.	c #78BAE5",
"$.	c #5C92D2",
"%.	c #293E8D",
"&.	c #84C8E9",
"*.	c #81C6E9",
"=.	c #7EC3E7",
"-.	c #5C8CB5",
";.	c #263B8A",
">.	c #88CDEC",
",.	c #84C9EA",
"'.	c #568DAE",
").	c #112A9C",
"!.	c #77AAC4",
"~.	c #183BD7",
"{.	c #2C3A8E",
".               ",
"+ @ #           ",
"$ % & *         ",
"= - ; > ,       ",
"' ) ! ~ { ]     ",
"^ ^ / ( _ : <   ",
"[ [ } | 1 2 3   ",
"4 4 5 6 7 8 9 0 ",
"a a b c d e f ] ",
"g h i j k l m ] ",
"n n o p q r s ] ",
"t u v w x y z A ",
"B C D E F G H , ",
"I J K L M N O P ",
"Q R S T U V ]   ",
"W X Y Z `  .    ",
"..+.@.#.$.%.    ",
"&.*.=.-.;.      ",
">.,.'.).        ",
"!.~.]           ",
"{.              "};
