/* XPM */
static const char* R_but_off_xpm[] = {
"8 21 69 1",
" 	c None",
".	c #565656",
"+	c #C4C4C4",
"@	c #595959",
"#	c #525252",
"$	c #F9F9F9",
"%	c #E2E2E2",
"&	c #CCCCCC",
"*	c #6C6C6C",
"=	c #F4F4F4",
"-	c #F3F3F3",
";	c #F0F0F0",
">	c #CBCBCB",
",	c #535353",
"'	c #EDEDED",
")	c #EAEAEA",
"!	c #E6E6E6",
"~	c #D1D1D1",
"{	c #505050",
"]	c #E3E3E3",
"^	c #DDDDDD",
"/	c #DADADA",
"(	c #A5A5A5",
"_	c #D7D7D7",
":	c #D6D6D6",
"<	c #CDCDCD",
"[	c #C2C2C2",
"}	c #4F4F4F",
"|	c #CFCFCF",
"1	c #D0D0D0",
"2	c #C9C9C9",
"3	c #C6C6C6",
"4	c #C8C8C8",
"5	c #848484",
"6	c #656565",
"7	c #C7C7C7",
"8	c #BFBFBF",
"9	c #C5C5C5",
"0	c #ABABAB",
"a	c #575757",
"b	c #BDBDBD",
"c	c #C0C0C0",
"d	c #5A5A5A",
"e	c #B7B7B7",
"f	c #BABABA",
"g	c #BBBBBB",
"h	c #BEBEBE",
"i	c #BCBCBC",
"j	c #C1C1C1",
"k	c #A6A6A6",
"l	c #4A4A4A",
"m	c #CACACA",
"n	c #797979",
"o	c #5E5E5E",
"p	c #D2D2D2",
"q	c #D5D5D5",
"r	c #D9D9D9",
"s	c #B4B4B4",
"t	c #DBDBDB",
"u	c #E0E0E0",
"v	c #E4E4E4",
"w	c #A1A1A1",
"x	c #E9E9E9",
"y	c #9F9F9F",
"z	c #EBEBEB",
"A	c #D8D8D8",
"B	c #4D4D4D",
"C	c #676767",
"D	c #555555",
".       ",
"+@#     ",
"$%&*    ",
"=-;>,   ",
"'')!~{  ",
"]]^//(. ",
"_:~<<[} ",
"|1234156",
"47+[890a",
"[b8cc88d",
"8efghifd",
"jfgi8hka",
"9+[b[j0l",
"m2>3<4no",
"pqr_<sd ",
"tu^^f.  ",
"]v%]w,  ",
")x3y,   ",
"zA7B    ",
"'CD     ",
"d       "};
