/* XPM */
static const char* ct_mid_off_xpm[] = {
"5 21 21 1",
" 	c None",
".	c #5A5A5A",
"+	c #F9F9F9",
"@	c #F7F7F7",
"#	c #F4F4F4",
"$	c #F1F1F1",
"%	c #EDEDED",
"&	c #EAEAEA",
"*	c #E7E7E7",
"=	c #E3E3E3",
"-	c #E0E0E0",
";	c #DDDDDD",
">	c #D9D9D9",
",	c #D6D6D6",
"'	c #D3D3D3",
")	c #CFCFCF",
"!	c #CCCCCC",
"~	c #C9C9C9",
"{	c #C5C5C5",
"]	c #C2C2C2",
"^	c #BFBFBF",
".....",
"+++++",
"@@@@@",
"#####",
"$$$$$",
"%%%%%",
"&&&&&",
"*****",
"=====",
"-----",
";;;;;",
">>>>>",
",,,,,",
"'''''",
")))))",
"!!!!!",
"~~~~~",
"{{{{{",
"]]]]]",
"^^^^^",
"....."};
