/* XPM */
static const char* lt_crv_on_xpm[] = {
"5 21 81 1",
" 	c None",
".	c #2F3855",
"+	c #3D4961",
"@	c #C8DEEE",
"#	c #3D4861",
"$	c #BBD6EB",
"%	c #C3DBED",
"&	c #3E4A63",
"*	c #B8D4EB",
"=	c #B6D4EB",
"-	c #BBD7EC",
";	c #B7D4EB",
">	c #B5D4EB",
",	c #B3D4EB",
"'	c #3F5366",
")	c #B4D3EA",
"!	c #B0D2E9",
"~	c #AAD0EA",
"{	c #485A6A",
"]	c #AFD0E7",
"^	c #ABCDE7",
"/	c #A7CCE6",
"(	c #A2CCE9",
"_	c #4C5E6B",
":	c #A4CAE6",
"<	c #A1C9E6",
"[	c #A0C8E5",
"}	c #9AC8E7",
"|	c #4A5D6C",
"1	c #95C4E3",
"2	c #91C1E2",
"3	c #91C1E3",
"4	c #92C5E6",
"5	c #445B6C",
"6	c #85BCE2",
"7	c #80BAE1",
"8	c #82BBE1",
"9	c #89C1E5",
"0	c #40596C",
"a	c #7AB8E1",
"b	c #74B6E0",
"c	c #76B6E0",
"d	c #81BDE4",
"e	c #3B586A",
"f	c #74B5E0",
"g	c #6FB3E0",
"h	c #6EB3DF",
"i	c #79B9E3",
"j	c #37546A",
"k	c #6CB1DE",
"l	c #69B1DF",
"m	c #69B0DE",
"n	c #70B6E2",
"o	c #2B4E66",
"p	c #61ACDD",
"q	c #61ACDE",
"r	c #61ADDD",
"s	c #68B2E1",
"t	c #244862",
"u	c #51A3DC",
"v	c #58A8DD",
"w	c #59A9DD",
"x	c #60AEE0",
"y	c #28435D",
"z	c #47A1DC",
"A	c #4EA4DC",
"B	c #54A7DD",
"C	c #58AADF",
"D	c #2E497F",
"E	c #42A1DC",
"F	c #46A1DC",
"G	c #4EA4DD",
"H	c #4FA7DE",
"I	c #2F4A80",
"J	c #40A0DC",
"K	c #47A3DD",
"L	c #304B83",
"M	c #3F9FDC",
"N	c #2F4A83",
"O	c #379CDA",
"P	c #364D98",
"    .",
"   +@",
"  #$%",
" &*=-",
"&;>>,",
"'))!~",
"{]^/(",
"_:<[}",
"|1234",
"56789",
"0abcd",
"efghi",
"jklmn",
"opqrs",
"tuvwx",
"yzABC",
"DEFGH",
" IJKK",
"  LMM",
"   NO",
"    P"};
