/* XPM */
static const char* lt_crv_off_xpm[] = {
"5 21 50 1",
" 	c None",
".	c #5A5A5A",
"+	c #F9F9F9",
"@	c #F7F7F7",
"#	c #F4F4F4",
"$	c #F1F1F1",
"%	c #F6F6F6",
"&	c #F3F3F3",
"*	c #F0F0F0",
"=	c #EDEDED",
"-	c #717171",
";	c #EFEFEF",
">	c #EAEAEA",
",	c #6E6E6E",
"'	c #EBEBEB",
")	c #E9E9E9",
"!	c #E7E7E7",
"~	c #787878",
"{	c #E8E8E8",
"]	c #E5E5E5",
"^	c #E3E3E3",
"/	c #E4E4E4",
"(	c #E2E2E2",
"_	c #E0E0E0",
":	c #767676",
"<	c #DFDFDF",
"[	c #DEDEDE",
"}	c #DDDDDD",
"|	c #DADADA",
"1	c #DBDBDB",
"2	c #D9D9D9",
"3	c #737373",
"4	c #D6D6D6",
"5	c #D7D7D7",
"6	c #6C6C6C",
"7	c #D1D1D1",
"8	c #D3D3D3",
"9	c #D4D4D4",
"0	c #CCCCCC",
"a	c #CFCFCF",
"b	c #D0D0D0",
"c	c #C8C8C8",
"d	c #CBCBCB",
"e	c #CDCDCD",
"f	c #BFBFBF",
"g	c #C3C3C3",
"h	c #C6C6C6",
"i	c #C9C9C9",
"j	c #C2C2C2",
"k	c #C5C5C5",
"    .",
"   .+",
"  .+@",
" .+@#",
".+@#$",
".%&*=",
"-$;=>",
",=')!",
"~{!]^",
"~/^(_",
":<<[}",
"~|112",
"34554",
"67898",
".0aba",
".cde0",
".fghi",
" .fjk",
"  .fj",
"   .f",
"    ."};
