/* XPM */
static char * lt_sep_on_xpm[] = {
"3 21 41 1",
" 	c None",
".	c #323E7B",
"+	c #2C3A8E",
"@	c #93A6B5",
"#	c #C8DEEE",
"$	c #8FA4B4",
"%	c #C3DBED",
"&	c #89A0B3",
"*	c #BBD7EC",
"=	c #829EB2",
"-	c #B3D4EB",
";	c #7B9AB0",
">	c #AAD0EA",
",	c #7697B0",
"'	c #A2CCE9",
")	c #6F93AE",
"!	c #9AC8E7",
"~	c #6991AD",
"{	c #92C5E6",
"]	c #628EAC",
"^	c #89C1E5",
"/	c #5C8AAC",
"(	c #81BDE4",
"_	c #5587AA",
":	c #79B9E3",
"<	c #4F84A9",
"[	c #70B6E2",
"}	c #4981A8",
"|	c #68B2E1",
"1	c #437FA8",
"2	c #60AEE0",
"3	c #3C7BA7",
"4	c #58AADF",
"5	c #3479A6",
"6	c #4FA7DE",
"7	c #2E76A5",
"8	c #47A3DD",
"9	c #2873A5",
"0	c #3F9FDC",
"a	c #2071A2",
"b	c #379CDA",
".++",
"@##",
"$%%",
"&**",
"=--",
";>>",
",''",
")!!",
"~{{",
"]^^",
"/((",
"_::",
"<[[",
"}||",
"122",
"344",
"566",
"788",
"900",
"abb",
".++"};
