/* XPM */
static char * lt_sep_off_xpm[] = {
"3 21 38 1",
" 	c None",
".	c #8C8C8C",
"+	c #DBDBDB",
"@	c #F9F9F9",
"#	c #D7D7D7",
"$	c #F7F7F7",
"%	c #D4D4D4",
"&	c #F4F4F4",
"*	c #D1D1D1",
"=	c #F1F1F1",
"-	c #CDCDCD",
";	c #EDEDED",
">	c #CACACA",
",	c #EAEAEA",
"'	c #C7C7C7",
")	c #E7E7E7",
"!	c #C3C3C3",
"~	c #E3E3E3",
"{	c #C0C0C0",
"]	c #E0E0E0",
"^	c #BCBCBC",
"/	c #DDDDDD",
"(	c #B7B7B7",
"_	c #D9D9D9",
":	c #B5B5B5",
"<	c #D6D6D6",
"[	c #B1B1B1",
"}	c #D3D3D3",
"|	c #ABABAB",
"1	c #CFCFCF",
"2	c #A7A7A7",
"3	c #CCCCCC",
"4	c #A5A5A5",
"5	c #C9C9C9",
"6	c #C5C5C5",
"7	c #C2C2C2",
"8	c #BFBFBF",
"9	c #727272",
"...",
"+@@",
"#$$",
"%&&",
"*==",
"-;;",
">,,",
"'))",
"!~~",
"{]]",
"^//",
"(__",
":<<",
"[}}",
"|11",
"233",
"455",
"466",
"477",
"488",
"999"};
