/* XPM */
static const char* rt_crv_on_xpm[] = {
"5 21 81 1",
" 	c None",
".	c #2F3855",
"+	c #C8DEEE",
"@	c #3D4961",
"#	c #C3DBED",
"$	c #BBD6EB",
"%	c #3D4861",
"&	c #BBD7EC",
"*	c #B6D4EB",
"=	c #B8D4EB",
"-	c #3E4A63",
";	c #B3D4EB",
">	c #B5D4EB",
",	c #B7D4EB",
"'	c #AAD0EA",
")	c #B0D2E9",
"!	c #B4D3EA",
"~	c #3F5366",
"{	c #A2CCE9",
"]	c #A7CCE6",
"^	c #ABCDE7",
"/	c #AFD0E7",
"(	c #485A6A",
"_	c #9AC8E7",
":	c #A0C8E5",
"<	c #A1C9E6",
"[	c #A4CAE6",
"}	c #4C5E6B",
"|	c #92C5E6",
"1	c #91C1E3",
"2	c #91C1E2",
"3	c #95C4E3",
"4	c #4A5D6C",
"5	c #89C1E5",
"6	c #82BBE1",
"7	c #80BAE1",
"8	c #85BCE2",
"9	c #445B6C",
"0	c #81BDE4",
"a	c #76B6E0",
"b	c #74B6E0",
"c	c #7AB8E1",
"d	c #40596C",
"e	c #79B9E3",
"f	c #6EB3DF",
"g	c #6FB3E0",
"h	c #74B5E0",
"i	c #3B586A",
"j	c #70B6E2",
"k	c #69B0DE",
"l	c #69B1DF",
"m	c #6CB1DE",
"n	c #37546A",
"o	c #68B2E1",
"p	c #61ADDD",
"q	c #61ACDE",
"r	c #61ACDD",
"s	c #2B4E66",
"t	c #60AEE0",
"u	c #59A9DD",
"v	c #58A8DD",
"w	c #51A3DC",
"x	c #244862",
"y	c #58AADF",
"z	c #54A7DD",
"A	c #4EA4DC",
"B	c #47A1DC",
"C	c #28435D",
"D	c #4FA7DE",
"E	c #4EA4DD",
"F	c #46A1DC",
"G	c #42A1DC",
"H	c #2E497F",
"I	c #47A3DD",
"J	c #40A0DC",
"K	c #2F4A80",
"L	c #3F9FDC",
"M	c #304B83",
"N	c #379CDA",
"O	c #2F4A83",
"P	c #364D98",
".    ",
"+@   ",
"#$%  ",
"&*=- ",
";>>,-",
"')!!~",
"{]^/(",
"_:<[}",
"|1234",
"56789",
"0abcd",
"efghi",
"jklmn",
"opqrs",
"tuvwx",
"yzABC",
"DEFGH",
"IIJK ",
"LLM  ",
"NO   ",
"P    "};
