/* XPM */
static const char* rt_crv_off_xpm[] = {
"5 21 50 1",
" 	c None",
".	c #5A5A5A",
"+	c #F9F9F9",
"@	c #F7F7F7",
"#	c #F4F4F4",
"$	c #F1F1F1",
"%	c #EDEDED",
"&	c #F0F0F0",
"*	c #F3F3F3",
"=	c #F6F6F6",
"-	c #EAEAEA",
";	c #EFEFEF",
">	c #717171",
",	c #E7E7E7",
"'	c #E9E9E9",
")	c #EBEBEB",
"!	c #6E6E6E",
"~	c #E3E3E3",
"{	c #E5E5E5",
"]	c #E8E8E8",
"^	c #787878",
"/	c #E0E0E0",
"(	c #E2E2E2",
"_	c #E4E4E4",
":	c #DDDDDD",
"<	c #DEDEDE",
"[	c #DFDFDF",
"}	c #767676",
"|	c #D9D9D9",
"1	c #DBDBDB",
"2	c #DADADA",
"3	c #D6D6D6",
"4	c #D7D7D7",
"5	c #737373",
"6	c #D3D3D3",
"7	c #D4D4D4",
"8	c #D1D1D1",
"9	c #6C6C6C",
"0	c #CFCFCF",
"a	c #D0D0D0",
"b	c #CCCCCC",
"c	c #CDCDCD",
"d	c #CBCBCB",
"e	c #C8C8C8",
"f	c #C9C9C9",
"g	c #C6C6C6",
"h	c #C3C3C3",
"i	c #BFBFBF",
"j	c #C5C5C5",
"k	c #C2C2C2",
".    ",
"+.   ",
"@+.  ",
"#@+. ",
"$#@+.",
"%&*=.",
"-%;$>",
",')%!",
"~{,]^",
"/(~_^",
":<[[}",
"|112^",
"34435",
"67689",
"0a0b.",
"bcde.",
"fghi.",
"jki. ",
"ki.  ",
"i.   ",
".    "};
