/* XPM */
static const char* rt_sep_off_xpm[] = {
"5 21 49 1",
" 	c None",
".	c #5A5A5A",
"+	c #F9F9F9",
"@	c #979797",
"#	c #FAFAFA",
"$	c #F7F7F7",
"%	c #F8F8F8",
"&	c #F4F4F4",
"*	c #F6F6F6",
"=	c #F1F1F1",
"-	c #EDEDED",
";	c #929292",
">	c #F2F2F2",
",	c #EAEAEA",
"'	c #F0F0F0",
")	c #E7E7E7",
"!	c #8F8F8F",
"~	c #EEEEEE",
"{	c #E3E3E3",
"]	c #8C8C8C",
"^	c #ECECEC",
"/	c #E0E0E0",
"(	c #8D8D8D",
"_	c #DDDDDD",
":	c #E8E8E8",
"<	c #D9D9D9",
"[	c #E6E6E6",
"}	c #D6D6D6",
"|	c #919191",
"1	c #E4E4E4",
"2	c #D3D3D3",
"3	c #949494",
"4	c #CFCFCF",
"5	c #9B9B9B",
"6	c #E1E1E1",
"7	c #CCCCCC",
"8	c #A1A1A1",
"9	c #DFDFDF",
"0	c #C9C9C9",
"a	c #A7A7A7",
"b	c #C5C5C5",
"c	c #AEAEAE",
"d	c #DBDBDB",
"e	c #C2C2C2",
"f	c #B0B0B0",
"g	c #DADADA",
"h	c #BFBFBF",
"i	c #AFAFAF",
"j	c #D8D8D8",
".....",
"+++@#",
"$$$@%",
"&&&@*",
"===@&",
"---;>",
",,,;'",
")))!~",
"{{{]^",
"///(,",
"___(:",
"<<<![",
"}}}|1",
"2223{",
"44456",
"77789",
"000a_",
"bbbcd",
"eeefg",
"hhhij",
"....."};
